<?xml version="1.0" standalone="no"?>
<!DOCTYPE svg PUBLIC "-//W3C//DTD SVG 20010904//EN"
 "http://www.w3.org/TR/2001/REC-SVG-20010904/DTD/svg10.dtd">
<svg version="1.0" xmlns="http://www.w3.org/2000/svg"
 width="500.000000pt" height="500.000000pt" viewBox="0 0 500.000000 500.000000"
 preserveAspectRatio="xMidYMid meet">
<metadata>
Created by potrace 1.11, written by Peter Selinger 2001-2013
</metadata>
<g transform="translate(0.000000,500.000000) scale(0.100000,-0.100000)"
fill="#000000" stroke="none">
<path d="M23 4628 c82 -142 664 -1151 685 -1188 14 -25 44 -78 68 -117 24 -40
44 -75 44 -78 0 -3 12 -24 27 -48 46 -74 123 -210 123 -218 0 -5 5 -9 10 -9 6
0 10 -5 10 -11 0 -6 22 -48 49 -93 27 -44 59 -99 71 -121 12 -22 99 -173 193
-335 94 -162 178 -308 186 -323 9 -16 21 -36 26 -45 6 -9 26 -44 44 -77 122
-212 273 -472 281 -485 6 -8 13 -22 17 -30 4 -8 24 -43 45 -78 21 -34 38 -66
38 -71 0 -5 3 -11 8 -13 4 -2 14 -16 23 -33 8 -16 75 -133 149 -260 73 -126
140 -244 150 -260 9 -17 49 -85 88 -152 39 -67 85 -148 102 -180 18 -32 36
-62 40 -67 5 -4 19 9 32 31 12 21 28 48 35 58 14 23 156 268 194 335 32 55
180 312 473 818 121 210 237 412 256 447 19 35 41 70 48 77 6 6 12 15 12 19 0
4 36 69 81 145 44 77 91 157 103 179 13 22 75 130 138 240 64 110 130 225 147
255 17 30 36 62 41 70 5 8 55 96 112 194 57 98 114 197 127 220 13 23 40 70
61 106 145 253 361 628 369 640 8 13 161 275 243 418 52 91 136 82 -801 82
l-829 0 -24 -42 c-14 -24 -100 -173 -193 -333 -92 -159 -176 -306 -187 -325
-11 -19 -46 -80 -78 -135 -32 -55 -67 -116 -77 -135 -73 -128 -265 -456 -271
-462 -4 -4 -52 71 -106 165 -55 95 -131 226 -169 292 -39 66 -78 134 -87 150
-9 17 -68 118 -130 225 -62 107 -126 220 -143 250 -16 30 -37 66 -45 78 -9 13
-23 36 -31 52 -9 15 -41 71 -71 124 l-55 96 -838 0 -839 0 25 -42z"/>
</g>
</svg>
